<svg xmlns="http://www.w3.org/2000/svg" xmlns:xlink="http://www.w3.org/1999/xlink" width="1920" zoomAndPan="magnify" viewBox="0 0 1440 809.999993" height="1080" preserveAspectRatio="xMidYMid meet" version="1.0"><defs><clipPath id="7865958b2d"><path d="M 323 72 L 1149.128906 72 L 1149.128906 810 L 323 810 Z M 323 72 " clip-rule="nonzero"/></clipPath><clipPath id="25b214cec7"><path d="M 302 51 L 989.902344 51 L 989.902344 810 L 302 810 Z M 302 51 " clip-rule="nonzero"/></clipPath><clipPath id="79e95fba11"><path d="M 291.167969 41.773438 L 1137 41.773438 L 1137 810 L 291.167969 810 Z M 291.167969 41.773438 " clip-rule="nonzero"/></clipPath></defs><g clip-path="url(#7865958b2d)"><path fill="#206648" d="M 445.777344 218.574219 L 453.722656 218.574219 C 454.621094 218.574219 455.34375 217.855469 455.34375 216.957031 L 455.34375 209.433594 L 444.160156 209.433594 L 444.160156 216.957031 C 444.160156 217.855469 444.878906 218.574219 445.777344 218.574219 Z M 369.851562 218.242188 L 377.800781 218.242188 C 378.691406 218.242188 379.421875 217.515625 379.421875 216.617188 L 379.421875 209.433594 L 368.230469 209.433594 L 368.230469 216.617188 C 368.230469 217.515625 368.960938 218.242188 369.851562 218.242188 Z M 424.5 132.074219 C 421.152344 132.074219 418.429688 134.792969 418.429688 138.132812 C 418.429688 141.480469 421.152344 144.199219 424.5 144.199219 C 427.84375 144.199219 430.566406 141.480469 430.566406 138.132812 C 430.566406 134.792969 427.84375 132.074219 424.5 132.074219 Z M 405.886719 138.132812 C 405.886719 141.480469 408.609375 144.199219 411.957031 144.199219 C 415.304688 144.199219 418.027344 141.480469 418.027344 138.132812 C 418.027344 134.792969 415.304688 132.074219 411.957031 132.074219 C 408.609375 132.074219 405.886719 134.792969 405.886719 138.132812 Z M 393.347656 138.132812 C 393.347656 141.480469 396.070312 144.199219 399.417969 144.199219 C 402.761719 144.199219 405.484375 141.480469 405.484375 138.132812 C 405.484375 134.792969 402.761719 132.074219 399.417969 132.074219 C 396.070312 132.074219 393.347656 134.792969 393.347656 138.132812 Z M 397.160156 95.957031 C 397.160156 104.429688 404.054688 111.320312 412.535156 111.320312 C 421.011719 111.320312 427.90625 104.429688 427.90625 95.957031 C 427.90625 87.488281 421.011719 80.597656 412.535156 80.597656 C 404.054688 80.597656 397.160156 87.488281 397.160156 95.957031 Z M 388.679688 95.957031 C 388.679688 82.816406 399.378906 72.117188 412.535156 72.117188 C 425.6875 72.117188 436.386719 82.816406 436.386719 95.957031 C 436.386719 109.097656 425.6875 119.796875 412.535156 119.796875 C 399.378906 119.796875 388.679688 109.097656 388.679688 95.957031 Z M 1061.351562 815.152344 L 323.820312 815.152344 C 323.820312 815.152344 354.269531 672.542969 415.832031 606.601562 C 477.390625 540.660156 537.945312 591.582031 579.890625 492.300781 C 602.480469 438.839844 597.226562 378.597656 752.320312 376.148438 C 772.820312 375.828125 791.042969 373.414062 807.445312 369.429688 L 798.046875 326.75 C 797.3125 323.070312 801.472656 320.476562 804.511719 322.675781 C 812.863281 328.722656 827.65625 335.40625 851.640625 334.414062 C 875.105469 333.441406 887.34375 324.90625 893.515625 317.777344 C 895.878906 315.058594 900.324219 316.410156 900.730469 319.988281 L 900.839844 320.832031 C 960.617188 272.105469 998.132812 213.15625 1102.648438 242.714844 C 1227.46875 278.015625 1061.351562 815.152344 1061.351562 815.152344 " fill-opacity="1" fill-rule="nonzero"/></g><g clip-path="url(#25b214cec7)"><path fill="#4c1c64" d="M 380.707031 366.769531 L 391.449219 366.769531 C 392.953125 366.769531 394.171875 365.550781 394.171875 364.046875 L 394.171875 348.574219 C 394.171875 347.070312 392.953125 345.847656 391.449219 345.847656 L 380.707031 345.847656 C 379.203125 345.847656 377.984375 347.070312 377.984375 348.574219 L 377.984375 364.046875 C 377.984375 365.550781 379.203125 366.769531 380.707031 366.769531 Z M 989.210938 133.324219 C 989.085938 132.847656 988.789062 132.445312 988.367188 132.203125 C 988.085938 132.03125 987.761719 131.941406 987.433594 131.941406 C 986.78125 131.941406 986.179688 132.289062 985.859375 132.835938 C 985.675781 133.140625 967.515625 163.046875 937.519531 174.039062 C 936.574219 174.386719 936.085938 175.441406 936.433594 176.390625 C 936.695312 177.105469 937.390625 177.589844 938.152344 177.589844 C 938.371094 177.589844 938.574219 177.554688 938.785156 177.480469 C 970.300781 165.929688 988.828125 135.019531 989.003906 134.710938 C 989.257812 134.289062 989.324219 133.800781 989.210938 133.324219 Z M 894.890625 116.277344 C 893.359375 114.871094 890.96875 114.964844 889.554688 116.496094 L 849.464844 160.007812 C 848.046875 161.542969 848.148438 163.929688 849.683594 165.339844 L 861.421875 176.148438 C 862.960938 177.5625 865.34375 177.460938 866.757812 175.929688 L 906.855469 132.417969 C 908.265625 130.882812 908.171875 128.5 906.632812 127.085938 Z M 960.296875 90.554688 L 938.40625 65.402344 L 908.230469 91.625 C 905.359375 94.113281 905.054688 98.464844 907.550781 101.335938 L 920.394531 116.09375 C 922.894531 118.964844 927.242188 119.273438 930.121094 116.777344 Z M 885.769531 109.886719 C 886.078125 110.097656 886.4375 110.207031 886.804688 110.207031 C 887.410156 110.207031 887.976562 109.90625 888.316406 109.402344 C 888.59375 109 888.695312 108.511719 888.601562 108.035156 C 888.511719 107.550781 888.242188 107.132812 887.832031 106.859375 C 883.128906 103.667969 875.667969 97.03125 875.667969 92.828125 C 875.667969 89.207031 896.3125 70.300781 915.445312 54.859375 C 915.828125 54.554688 916.066406 54.113281 916.113281 53.628906 C 916.167969 53.140625 916.027344 52.664062 915.71875 52.28125 C 915.371094 51.847656 914.847656 51.601562 914.296875 51.601562 C 913.875 51.601562 913.464844 51.746094 913.140625 52.011719 C 903.488281 59.796875 872 85.753906 872 92.828125 C 872 100.335938 884.363281 108.933594 885.769531 109.886719 Z M 489.042969 280.621094 L 502.980469 280.621094 C 504.484375 280.621094 505.703125 279.394531 505.703125 277.894531 L 505.703125 258.289062 C 505.703125 256.789062 504.484375 255.5625 502.980469 255.5625 L 489.042969 255.5625 C 487.539062 255.5625 486.320312 256.789062 486.320312 258.289062 L 486.320312 277.894531 C 486.320312 279.394531 487.539062 280.621094 489.042969 280.621094 Z M 731.492188 406.585938 C 731.492188 404.90625 730.132812 403.546875 728.449219 403.546875 C 726.761719 403.546875 725.398438 404.90625 725.398438 406.585938 C 725.398438 408.273438 726.761719 409.632812 728.449219 409.632812 C 730.132812 409.632812 731.492188 408.273438 731.492188 406.585938 Z M 727.871094 429.507812 C 727.871094 428.496094 727.054688 427.671875 726.039062 427.671875 L 633.027344 427.671875 C 632.015625 427.671875 631.195312 428.496094 631.195312 429.507812 C 631.195312 430.515625 632.015625 431.335938 633.027344 431.335938 L 726.039062 431.335938 C 727.054688 431.335938 727.871094 430.515625 727.871094 429.507812 Z M 722.234375 478.382812 L 638.039062 478.382812 L 638.039062 484.636719 L 722.234375 484.636719 Z M 722.234375 488.234375 L 638.039062 488.234375 L 638.039062 494.484375 L 722.234375 494.484375 Z M 722.234375 498.09375 L 638.039062 498.09375 L 638.039062 504.339844 L 722.234375 504.339844 Z M 722.234375 507.949219 L 638.039062 507.949219 L 638.039062 514.203125 L 722.234375 514.203125 Z M 722.234375 517.804688 L 638.039062 517.804688 L 638.039062 524.058594 L 722.234375 524.058594 Z M 707.273438 386.398438 C 707.273438 389.226562 709.574219 391.519531 712.40625 391.519531 C 715.246094 391.519531 717.539062 389.226562 717.539062 386.398438 C 717.539062 383.5625 715.246094 381.269531 712.40625 381.269531 C 709.574219 381.269531 707.273438 383.5625 707.273438 386.398438 Z M 727.804688 393.34375 C 726.121094 393.34375 724.761719 394.703125 724.761719 396.382812 C 724.761719 398.070312 726.121094 399.429688 727.804688 399.429688 C 729.492188 399.429688 730.851562 398.070312 730.851562 396.382812 C 730.851562 394.703125 729.492188 393.34375 727.804688 393.34375 Z M 724.597656 384.957031 C 724.597656 386.636719 725.964844 387.996094 727.648438 387.996094 C 729.328125 387.996094 730.6875 386.636719 730.6875 384.957031 C 730.6875 383.269531 729.328125 381.910156 727.648438 381.910156 C 725.964844 381.910156 724.597656 383.269531 724.597656 384.957031 Z M 797.296875 541.769531 C 798.835938 551.339844 800.613281 562.234375 802.4375 573.164062 L 466.015625 573.164062 C 494.835938 562.601562 522.292969 562.152344 546.402344 541.769531 L 612.777344 541.769531 L 612.777344 419.726562 L 612.804688 419.167969 C 619.460938 411.171875 628 403.898438 639.40625 397.695312 C 642.761719 404.476562 649.726562 409.148438 657.804688 409.148438 C 669.136719 409.148438 678.332031 399.96875 678.332031 388.636719 C 678.332031 386.996094 678.113281 385.40625 677.753906 383.875 C 695.675781 379.761719 717.621094 377.109375 744.722656 376.324219 L 747.488281 417.808594 L 747.488281 541.769531 Z M 671.878906 391.445312 C 672.058594 390.535156 672.160156 389.601562 672.160156 388.636719 C 672.160156 387.5 672.007812 386.398438 671.757812 385.339844 C 670.730469 385.601562 669.730469 385.882812 668.730469 386.160156 C 668.914062 386.964844 669.015625 387.785156 669.015625 388.644531 C 669.015625 389.609375 668.878906 390.546875 668.648438 391.445312 Z M 925.125 815.152344 L 956.546875 815.152344 L 956.546875 814.5625 L 925.125 814.730469 Z M 396.683594 99.878906 L 402.082031 99.878906 L 401.789062 98.738281 C 401.542969 97.800781 401.421875 96.859375 401.421875 95.957031 C 401.421875 89.835938 406.394531 84.855469 412.609375 84.855469 C 412.617188 84.855469 413.15625 84.882812 413.15625 84.882812 C 419.035156 85.214844 423.644531 90.078125 423.644531 95.957031 C 423.644531 96.859375 423.523438 97.800781 423.277344 98.738281 L 422.984375 99.878906 L 428.382812 99.878906 L 428.53125 99.144531 C 428.742188 98.078125 428.851562 97.011719 428.851562 95.957031 C 428.851562 86.964844 421.535156 79.652344 412.535156 79.652344 C 403.539062 79.652344 396.21875 86.964844 396.21875 95.957031 C 396.21875 97.015625 396.324219 98.085938 396.535156 99.144531 Z M 773.332031 744.675781 L 617.871094 744.675781 L 608.410156 742.648438 C 607.082031 742.363281 606.746094 740.613281 607.890625 739.867188 L 622.476562 730.277344 L 610.464844 734.953125 C 609.191406 735.453125 607.953125 734.167969 608.496094 732.90625 L 627.8125 688.511719 C 628.515625 686.910156 626.40625 685.570312 625.25 686.886719 L 590.28125 726.820312 C 589.261719 727.988281 587.34375 727.070312 587.613281 725.535156 L 592.882812 696.402344 C 593.195312 694.675781 590.820312 693.859375 590.003906 695.425781 L 578.40625 717.589844 C 577.9375 718.488281 576.746094 718.691406 576.003906 718.003906 L 553.1875 696.867188 C 551.921875 695.6875 549.980469 697.171875 550.777344 698.703125 L 564.535156 724.941406 C 565.207031 726.230469 563.886719 727.644531 562.554688 727.058594 L 522.277344 709.367188 C 520.652344 708.652344 519.3125 710.816406 520.679688 711.953125 L 545.046875 732.246094 C 546.011719 733.050781 545.652344 734.613281 544.425781 734.914062 L 504.765625 744.675781 L 335.21875 744.675781 L 302.226562 816.492188 L 797.09375 816.492188 L 797.09375 768.417969 C 797.09375 755.304688 786.457031 744.675781 773.332031 744.675781 Z M 954.851562 273.714844 L 956.546875 273.714844 L 956.546875 578.382812 C 940.816406 549.167969 930.046875 514.855469 925.703125 499.742188 C 925.554688 499.222656 925.355469 498.734375 925.125 498.265625 L 925.125 447.089844 C 932.824219 430.304688 943.585938 422.066406 943.585938 422.066406 L 927.09375 420.109375 L 925.125 422.121094 L 925.125 299.820312 C 935.171875 290.796875 944.90625 281.898438 954.851562 273.714844 " fill-opacity="1" fill-rule="nonzero"/></g><path fill="#f6836b" d="M 924.351562 339.746094 C 913.050781 332.929688 908.402344 355.71875 907.980469 357.925781 C 907.972656 357.96875 907.972656 357.976562 907.964844 358.003906 C 907.960938 358.042969 907.953125 358.0625 907.953125 358.082031 C 907.953125 358.082031 907.945312 358.117188 907.945312 358.117188 C 907.945312 358.125 907.945312 358.125 907.945312 358.125 C 907.761719 358.894531 907.648438 359.605469 907.550781 360.300781 L 905.863281 357.628906 L 908.226562 374.898438 L 917.957031 376.855469 C 917.957031 376.835938 917.957031 376.816406 917.953125 376.796875 L 914.445312 371.238281 C 914.9375 371.101562 915.417969 370.90625 915.910156 370.6875 L 915.910156 370.679688 C 925.464844 366.273438 934.574219 345.910156 924.351562 339.746094 Z M 812.707031 323.789062 L 812.707031 327.488281 C 811.992188 327.148438 811.273438 326.804688 810.613281 326.449219 C 811.285156 326.808594 811.980469 327.171875 812.707031 327.515625 C 812.972656 327.648438 813.257812 327.777344 813.53125 327.90625 C 813.84375 328.046875 814.160156 328.191406 814.476562 328.332031 C 814.796875 328.476562 815.136719 328.621094 815.472656 328.761719 C 815.777344 328.890625 816.078125 329.011719 816.390625 329.144531 C 816.738281 329.277344 817.09375 329.421875 817.453125 329.558594 C 817.753906 329.667969 818.050781 329.78125 818.359375 329.890625 C 818.386719 329.90625 818.414062 329.917969 818.441406 329.925781 C 818.800781 330.054688 819.160156 330.183594 819.523438 330.304688 C 819.839844 330.414062 820.160156 330.523438 820.480469 330.632812 C 820.625 330.671875 820.765625 330.722656 820.910156 330.769531 C 821.175781 330.851562 821.433594 330.9375 821.707031 331.019531 C 822.082031 331.136719 822.460938 331.246094 822.84375 331.351562 C 822.964844 331.386719 823.089844 331.421875 823.203125 331.457031 C 823.585938 331.5625 823.972656 331.667969 824.367188 331.773438 C 824.675781 331.855469 824.980469 331.929688 825.285156 332.011719 C 825.496094 332.0625 825.703125 332.109375 825.914062 332.164062 C 826.410156 332.285156 826.914062 332.394531 827.429688 332.507812 C 827.730469 332.578125 828.03125 332.644531 828.335938 332.707031 C 828.601562 332.761719 828.867188 332.816406 829.140625 332.871094 C 829.894531 333.011719 830.664062 333.164062 831.453125 333.292969 C 831.472656 333.296875 831.5 333.296875 831.523438 333.304688 C 831.820312 333.351562 832.132812 333.402344 832.433594 333.441406 C 833.1875 333.558594 833.957031 333.664062 834.742188 333.769531 C 835 333.796875 835.257812 333.828125 835.515625 333.855469 C 835.753906 333.890625 836 333.910156 836.238281 333.9375 C 836.996094 334.019531 837.757812 334.09375 838.53125 334.164062 C 838.980469 334.195312 839.429688 334.230469 839.886719 334.265625 C 840.65625 334.320312 841.445312 334.359375 842.242188 334.394531 C 842.679688 334.414062 843.113281 334.433594 843.554688 334.449219 C 843.625 334.449219 843.691406 334.453125 843.761719 334.453125 C 844.589844 334.480469 845.449219 334.496094 846.304688 334.496094 C 846.558594 334.496094 846.800781 334.503906 847.054688 334.503906 C 847.273438 334.503906 847.488281 334.503906 847.699219 334.503906 C 848.988281 334.496094 850.292969 334.46875 851.640625 334.414062 C 851.675781 334.414062 851.703125 334.40625 851.738281 334.40625 C 853.144531 334.347656 854.515625 334.265625 855.839844 334.148438 C 856.285156 334.113281 856.691406 334.058594 857.121094 334.011719 C 857.835938 333.945312 858.539062 333.871094 859.230469 333.789062 C 859.414062 333.769531 859.613281 333.746094 859.796875 333.726562 C 860.292969 333.664062 860.757812 333.578125 861.238281 333.507812 C 862 333.394531 862.769531 333.285156 863.507812 333.15625 C 864.015625 333.066406 864.492188 332.957031 864.988281 332.863281 C 865.382812 332.78125 865.773438 332.699219 866.167969 332.617188 C 866.441406 332.5625 866.726562 332.515625 866.992188 332.457031 C 867.480469 332.339844 867.949219 332.21875 868.425781 332.09375 C 869.03125 331.945312 869.652344 331.796875 870.230469 331.632812 C 870.714844 331.496094 871.171875 331.351562 871.632812 331.210938 C 872.175781 331.039062 872.730469 330.878906 873.253906 330.699219 C 873.734375 330.539062 874.199219 330.367188 874.667969 330.195312 C 875.136719 330.027344 875.609375 329.855469 876.0625 329.679688 C 876.535156 329.488281 876.988281 329.300781 877.4375 329.109375 C 877.601562 329.039062 877.757812 328.972656 877.914062 328.90625 C 878.167969 328.796875 878.417969 328.6875 878.664062 328.578125 C 879.121094 328.367188 879.5625 328.148438 880.003906 327.933594 C 880.167969 327.855469 880.324219 327.777344 880.480469 327.695312 C 880.679688 327.597656 880.871094 327.511719 881.058594 327.410156 C 881.515625 327.171875 881.957031 326.925781 882.394531 326.679688 C 882.53125 326.597656 882.667969 326.523438 882.808594 326.441406 C 882.960938 326.359375 883.121094 326.273438 883.273438 326.183594 C 883.714844 325.917969 884.148438 325.648438 884.574219 325.382812 C 884.8125 325.230469 885.046875 325.082031 885.28125 324.925781 C 885.714844 324.640625 886.144531 324.339844 886.558594 324.046875 C 886.695312 323.945312 886.839844 323.84375 886.980469 323.75 C 887.023438 323.714844 887.070312 323.679688 887.109375 323.648438 C 887.554688 323.320312 887.976562 323 888.382812 322.667969 C 888.519531 322.566406 888.65625 322.457031 888.785156 322.347656 C 889.214844 321.996094 889.628906 321.640625 890.03125 321.285156 C 890.113281 321.210938 890.203125 321.128906 890.28125 321.054688 C 890.710938 320.667969 891.128906 320.28125 891.523438 319.894531 C 891.554688 319.851562 891.597656 319.8125 891.636719 319.769531 C 891.957031 319.457031 892.265625 319.144531 892.5625 318.832031 C 892.660156 318.730469 892.746094 318.628906 892.835938 318.527344 L 891.652344 314.371094 C 861.601562 333.796875 812.707031 323.789062 812.707031 323.789062 Z M 809.195312 325.679688 C 809.414062 325.804688 809.652344 325.925781 809.875 326.046875 C 809.644531 325.917969 809.421875 325.789062 809.195312 325.667969 C 809.195312 325.675781 809.195312 325.675781 809.195312 325.679688 Z M 910.355469 390.515625 L 918.183594 394.0625 C 917.964844 397.132812 917.578125 399.867188 916.964844 402.152344 C 916.285156 404.675781 914.863281 406.941406 912.875 408.972656 L 910.355469 390.515625 " fill-opacity="1" fill-rule="nonzero"/><path fill="#fab328" d="M 894.238281 122.367188 C 890.992188 122.367188 888.355469 125 888.355469 128.242188 C 888.355469 131.488281 890.992188 134.121094 894.238281 134.121094 C 897.484375 134.121094 900.117188 131.488281 900.117188 128.242188 C 900.117188 125 897.484375 122.367188 894.238281 122.367188 Z M 913.9375 89.011719 C 911.0625 91.507812 910.757812 95.859375 913.253906 98.730469 L 923.269531 110.238281 C 925.765625 113.109375 930.121094 113.414062 932.996094 110.917969 L 958.59375 88.671875 L 939.535156 66.761719 Z M 397.433594 98.96875 L 400.894531 98.96875 C 400.652344 98.003906 400.5 96.996094 400.5 95.957031 C 400.5 89.332031 405.898438 83.9375 412.535156 83.9375 C 412.5625 83.9375 412.589844 83.9375 412.625 83.9375 L 410.785156 95.160156 C 410.648438 95.433594 410.554688 95.726562 410.554688 96.042969 C 410.554688 97.132812 411.441406 98.023438 412.535156 98.023438 C 413.625 98.023438 414.507812 97.132812 414.507812 96.042969 L 414.597656 96.042969 L 413.210938 83.972656 C 419.527344 84.324219 424.5625 89.554688 424.5625 95.957031 C 424.5625 96.996094 424.414062 98.003906 424.167969 98.96875 L 427.632812 98.96875 C 427.824219 97.988281 427.933594 96.988281 427.933594 95.957031 C 427.933594 87.460938 421.039062 80.570312 412.535156 80.570312 C 404.027344 80.570312 397.132812 87.460938 397.132812 95.957031 C 397.132812 96.988281 397.242188 97.988281 397.433594 98.96875 Z M 395.328125 95.957031 C 395.328125 86.480469 403.046875 78.761719 412.535156 78.761719 C 422.015625 78.761719 429.734375 86.480469 429.734375 95.957031 C 429.734375 105.4375 422.015625 113.152344 412.535156 113.152344 C 403.046875 113.152344 395.328125 105.4375 395.328125 95.957031 Z M 501.015625 625.328125 C 501.367188 625.84375 501.945312 626.121094 502.53125 626.121094 C 502.886719 626.121094 503.246094 626.019531 503.558594 625.800781 C 504.398438 625.238281 504.613281 624.09375 504.042969 623.257812 L 499.625 616.777344 C 499.054688 615.941406 497.910156 615.722656 497.082031 616.292969 C 496.242188 616.867188 496.023438 618.007812 496.597656 618.835938 Z M 453.328125 713.816406 L 472.671875 713.929688 C 472.671875 713.929688 472.679688 713.929688 472.679688 713.929688 C 473.6875 713.929688 474.507812 713.121094 474.515625 712.109375 C 474.515625 711.101562 473.707031 710.273438 472.691406 710.265625 L 453.347656 710.148438 C 453.347656 710.148438 453.339844 710.148438 453.339844 710.148438 C 452.332031 710.148438 451.511719 710.964844 451.511719 711.972656 C 451.503906 712.984375 452.3125 713.808594 453.328125 713.816406 Z M 507.175781 665.566406 C 507.527344 665.890625 507.976562 666.046875 508.421875 666.046875 C 508.917969 666.046875 509.40625 665.851562 509.769531 665.460938 C 510.457031 664.722656 510.40625 663.566406 509.664062 662.871094 L 489.640625 644.355469 C 488.898438 643.671875 487.742188 643.710938 487.054688 644.460938 C 486.367188 645.199219 486.40625 646.355469 487.148438 647.042969 Z M 515.851562 594.289062 C 514.941406 594.738281 514.578125 595.839844 515.027344 596.753906 L 519.746094 606.167969 C 520.066406 606.8125 520.710938 607.179688 521.386719 607.179688 C 521.660156 607.179688 521.9375 607.117188 522.203125 606.988281 C 523.109375 606.535156 523.476562 605.433594 523.019531 604.527344 L 518.308594 595.105469 C 517.855469 594.210938 516.757812 593.839844 515.851562 594.289062 Z M 549.660156 647.738281 C 549.890625 648.546875 550.628906 649.078125 551.425781 649.078125 C 551.59375 649.078125 551.757812 649.058594 551.921875 649.003906 C 552.894531 648.738281 553.464844 647.722656 553.195312 646.75 L 546.320312 622.121094 C 546.046875 621.148438 545.03125 620.578125 544.066406 620.851562 C 543.085938 621.125 542.519531 622.136719 542.792969 623.109375 Z M 426.285156 698.804688 L 458.683594 703.3125 C 458.765625 703.328125 458.855469 703.335938 458.9375 703.335938 C 459.835938 703.335938 460.625 702.667969 460.753906 701.75 C 460.890625 700.75 460.1875 699.832031 459.1875 699.6875 L 426.789062 695.179688 C 425.789062 695.015625 424.855469 695.738281 424.71875 696.738281 C 424.582031 697.738281 425.277344 698.660156 426.285156 698.804688 Z M 412.632812 712.230469 L 396.253906 711.90625 C 395.191406 711.953125 394.402344 712.6875 394.382812 713.699219 C 394.363281 714.707031 395.164062 715.542969 396.179688 715.5625 L 412.554688 715.890625 C 412.570312 715.890625 412.578125 715.890625 412.589844 715.890625 C 413.582031 715.890625 414.40625 715.09375 414.429688 714.09375 C 414.441406 713.085938 413.636719 712.25 412.632812 712.230469 Z M 385.886719 412.386719 C 384.875 412.386719 384.050781 413.210938 384.050781 414.222656 L 384.050781 736.035156 C 384.050781 737.050781 384.875 737.871094 385.886719 737.871094 C 386.894531 737.871094 387.71875 737.050781 387.71875 736.035156 L 387.71875 414.222656 C 387.71875 413.210938 386.894531 412.386719 385.886719 412.386719 Z M 567.074219 657.511719 C 567.050781 658.519531 567.855469 659.355469 568.871094 659.375 C 568.882812 659.375 568.898438 659.375 568.902344 659.375 C 569.902344 659.375 570.722656 658.578125 570.734375 657.578125 L 571.128906 637.570312 C 571.148438 636.554688 570.347656 635.71875 569.332031 635.699219 C 569.320312 635.699219 569.3125 635.699219 569.296875 635.699219 C 568.304688 635.699219 567.488281 636.496094 567.46875 637.496094 Z M 999.167969 438.132812 C 998.496094 437.371094 997.335938 437.289062 996.582031 437.957031 C 995.820312 438.621094 995.738281 439.785156 996.40625 440.546875 C 1010.792969 456.972656 1005.363281 489.585938 1002.117188 509.066406 C 1001.773438 511.128906 1001.449219 513.046875 1001.175781 514.800781 C 999.414062 526.136719 995.996094 560.472656 995.960938 560.820312 C 995.859375 561.828125 996.59375 562.722656 997.601562 562.820312 C 997.664062 562.828125 997.726562 562.832031 997.785156 562.832031 C 998.71875 562.832031 999.515625 562.125 999.609375 561.179688 C 999.644531 560.839844 1003.054688 526.601562 1004.804688 515.363281 C 1005.070312 513.625 1005.390625 511.71875 1005.730469 509.671875 C 1009.085938 489.546875 1014.695312 455.871094 999.167969 438.132812 Z M 927.628906 554.472656 C 926.628906 554.609375 925.921875 555.535156 926.058594 556.535156 C 926.195312 557.535156 927.105469 558.226562 928.121094 558.105469 C 941.570312 556.289062 952.414062 566.535156 952.527344 566.640625 C 952.882812 566.980469 953.339844 567.152344 953.796875 567.152344 C 954.277344 567.152344 954.753906 566.960938 955.117188 566.585938 C 955.816406 565.859375 955.796875 564.703125 955.066406 564.003906 C 954.578125 563.527344 942.855469 552.425781 927.628906 554.472656 Z M 715.164062 577.890625 C 714.523438 578.675781 714.632812 579.832031 715.414062 580.46875 C 716.464844 581.332031 724.765625 587.953125 732.050781 587.953125 C 733.140625 587.953125 734.207031 587.800781 735.222656 587.460938 C 736.183594 587.140625 736.707031 586.109375 736.378906 585.148438 C 736.058594 584.191406 735.023438 583.667969 734.066406 583.992188 C 729.046875 585.652344 720.589844 579.964844 717.742188 577.640625 C 716.960938 576.992188 715.804688 577.109375 715.164062 577.890625 Z M 643.90625 590.855469 L 639.601562 600.464844 C 639.1875 601.390625 639.601562 602.480469 640.527344 602.886719 C 640.773438 602.996094 641.027344 603.050781 641.277344 603.050781 C 641.980469 603.050781 642.644531 602.644531 642.953125 601.960938 L 647.253906 592.351562 C 647.667969 591.425781 647.253906 590.34375 646.328125 589.929688 C 645.394531 589.523438 644.320312 589.9375 643.90625 590.855469 Z M 438.496094 667.589844 C 437.570312 667.171875 436.488281 667.570312 436.058594 668.488281 C 435.636719 669.402344 436.039062 670.488281 436.957031 670.917969 L 446.675781 675.398438 C 446.929688 675.515625 447.1875 675.5625 447.445312 675.5625 C 448.140625 675.5625 448.800781 675.175781 449.113281 674.503906 C 449.535156 673.585938 449.132812 672.496094 448.214844 672.074219 Z M 953.734375 428.417969 C 954.632812 427.96875 955.007812 426.875 954.558594 425.972656 C 954.113281 425.066406 953.027344 424.691406 952.105469 425.132812 C 951.359375 425.5 933.75 434.546875 931.347656 469.921875 C 929.148438 502.40625 931.007812 512.378906 931.089844 512.785156 C 931.257812 513.65625 932.019531 514.261719 932.878906 514.261719 C 932.996094 514.261719 933.117188 514.257812 933.234375 514.230469 C 934.226562 514.039062 934.871094 513.078125 934.683594 512.085938 C 934.667969 511.992188 932.851562 501.980469 935.007812 470.167969 C 937.253906 437.085938 953.5625 428.5 953.734375 428.417969 Z M 565.34375 615.027344 C 565.355469 615.027344 565.363281 615.027344 565.371094 615.027344 C 566.371094 615.027344 567.1875 614.226562 567.203125 613.226562 L 567.597656 584.964844 C 567.609375 583.957031 566.800781 583.121094 565.785156 583.109375 C 565.777344 583.109375 565.773438 583.109375 565.765625 583.109375 C 564.765625 583.109375 563.949219 583.910156 563.929688 584.917969 L 563.539062 613.171875 C 563.527344 614.183594 564.335938 615.015625 565.34375 615.027344 Z M 584.695312 634.902344 C 584.925781 635 585.164062 635.046875 585.402344 635.046875 C 586.117188 635.046875 586.796875 634.625 587.089844 633.917969 L 594.164062 617.042969 C 594.550781 616.109375 594.109375 615.042969 593.175781 614.648438 C 592.242188 614.253906 591.167969 614.695312 590.78125 615.632812 L 583.707031 632.507812 C 583.320312 633.441406 583.761719 634.507812 584.695312 634.902344 Z M 705.28125 744.164062 L 632.148438 728.507812 C 629.351562 727.910156 628.660156 724.234375 631.054688 722.664062 L 671.042969 696.382812 C 674.277344 694.261719 671.710938 689.289062 668.101562 690.691406 L 627.882812 706.347656 C 625.214844 707.386719 622.613281 704.6875 623.757812 702.0625 L 627.269531 693.996094 L 635.054688 686.96875 L 681.640625 668.367188 C 681.785156 668.0625 680.941406 666.414062 679.457031 663.9375 C 679.660156 663.539062 679.722656 663.070312 679.585938 662.597656 C 679.347656 661.816406 678.632812 661.335938 677.855469 661.320312 C 674.542969 656.035156 669.496094 648.527344 664.535156 641.378906 L 686.34375 624.019531 C 687.132812 623.386719 687.269531 622.230469 686.636719 621.441406 C 686.003906 620.652344 684.855469 620.523438 684.0625 621.148438 L 662.433594 638.363281 C 655.222656 628.074219 648.746094 619.363281 648.757812 620.441406 C 648.765625 621.101562 646.867188 624.460938 644.082031 629.027344 C 643.960938 628.855469 643.832031 628.691406 643.652344 628.570312 C 642.824219 627.992188 641.679688 628.191406 641.09375 629.019531 L 626.390625 649.941406 C 625.8125 650.765625 626.011719 651.914062 626.835938 652.492188 C 627.160156 652.714844 627.527344 652.824219 627.890625 652.824219 C 628.46875 652.824219 629.03125 652.554688 629.394531 652.050781 L 629.742188 651.554688 C 628.160156 653.976562 626.703125 656.199219 625.480469 658.0625 L 625.335938 658.226562 C 620.285156 660.253906 611.234375 662.660156 602.351562 665.347656 L 607.0625 639.277344 C 607.722656 635.644531 602.746094 633.945312 601.03125 637.207031 L 582.367188 672.875 C 580.789062 673.773438 579.527344 674.679688 578.691406 675.605469 C 576.960938 677.515625 576.453125 680.460938 576.640625 683.820312 L 573.328125 690.152344 C 572.347656 692.03125 569.84375 692.464844 568.285156 691.015625 L 524 649.980469 C 521.339844 647.519531 517.269531 650.628906 518.949219 653.839844 L 538.519531 691.160156 C 539.929688 693.859375 537.152344 696.832031 534.359375 695.609375 L 473.964844 669.074219 C 470.542969 667.578125 467.730469 672.113281 470.601562 674.503906 L 519.152344 714.929688 C 521.183594 716.625 520.425781 719.902344 517.859375 720.535156 L 421.699219 744.183594 C 417.996094 745.097656 418.65625 750.539062 422.464844 750.539062 L 486.136719 750.539062 C 486.101562 749.863281 486.457031 749.175781 487.292969 748.972656 L 544.425781 734.914062 C 545.652344 734.613281 546.011719 733.050781 545.046875 732.246094 L 520.679688 711.953125 C 519.3125 710.816406 520.652344 708.652344 522.277344 709.367188 L 562.554688 727.058594 C 563.886719 727.644531 565.207031 726.230469 564.535156 724.941406 L 550.777344 698.703125 C 549.980469 697.171875 551.921875 695.6875 553.1875 696.867188 L 576.003906 718.003906 C 576.746094 718.691406 577.9375 718.488281 578.40625 717.589844 L 590.003906 695.425781 C 590.820312 693.859375 593.195312 694.675781 592.882812 696.402344 L 587.613281 725.535156 C 587.34375 727.070312 589.261719 727.988281 590.28125 726.820312 L 603.773438 711.421875 L 625.25 686.886719 C 626.40625 685.570312 628.515625 686.910156 627.8125 688.511719 L 608.496094 732.90625 C 607.953125 734.167969 609.191406 735.453125 610.464844 734.953125 L 622.476562 730.277344 L 607.890625 739.867188 C 606.746094 740.613281 607.082031 742.363281 608.410156 742.648438 L 637.886719 748.960938 C 638.753906 749.144531 639.125 749.851562 639.085938 750.539062 L 704.605469 750.539062 C 708.472656 750.539062 709.066406 744.972656 705.28125 744.164062 Z M 804.042969 613.050781 L 751.59375 660.898438 L 703.007812 680.625 L 691.925781 710.164062 C 691.925781 710.164062 716.558594 744 731.335938 739.695312 C 743.839844 736.050781 770.039062 702.109375 782.308594 690.957031 C 801.171875 688.488281 842.46875 683.261719 844.890625 684.480469 C 848.027344 686.042969 806.910156 613.050781 804.042969 613.050781 Z M 812.96875 353.152344 L 816.5 372.933594 C 816.5 372.933594 823.570312 378.664062 843.617188 381.386719 C 863.65625 384.105469 885.628906 370.320312 885.628906 370.320312 L 882.542969 350.664062 C 850.34375 371.066406 812.96875 353.152344 812.96875 353.152344 Z M 514.234375 283.859375 C 523.292969 283.859375 530.65625 276.5 530.65625 267.445312 C 530.65625 258.390625 523.292969 251.03125 514.234375 251.03125 C 505.171875 251.03125 497.808594 258.390625 497.808594 267.445312 C 497.808594 276.5 505.171875 283.859375 514.234375 283.859375 Z M 465.125 248.851562 L 439.511719 248.851562 L 439.511719 308.773438 L 465.125 308.773438 Z M 338.894531 390.28125 L 360.28125 390.28125 L 360.28125 340.242188 L 338.894531 340.242188 Z M 728.449219 404.402344 C 727.238281 404.402344 726.257812 405.382812 726.257812 406.585938 C 726.257812 407.796875 727.238281 408.777344 728.449219 408.777344 C 729.65625 408.777344 730.632812 407.796875 730.632812 406.585938 C 730.632812 405.382812 729.65625 404.402344 728.449219 404.402344 Z M 727.804688 394.199219 C 726.597656 394.199219 725.617188 395.179688 725.617188 396.382812 C 725.617188 397.59375 726.597656 398.574219 727.804688 398.574219 C 729.015625 398.574219 729.996094 397.59375 729.996094 396.382812 C 729.996094 395.179688 729.015625 394.199219 727.804688 394.199219 Z M 727.648438 387.140625 C 728.851562 387.140625 729.832031 386.160156 729.832031 384.957031 C 729.832031 383.746094 728.851562 382.765625 727.648438 382.765625 C 726.433594 382.765625 725.453125 383.746094 725.453125 384.957031 C 725.453125 386.160156 726.433594 387.140625 727.648438 387.140625 Z M 712.40625 382.710938 C 710.371094 382.710938 708.722656 384.359375 708.722656 386.398438 C 708.722656 388.433594 710.371094 390.078125 712.40625 390.078125 C 714.449219 390.078125 716.097656 388.433594 716.097656 386.398438 C 716.097656 384.359375 714.449219 382.710938 712.40625 382.710938 Z M 673.839844 388.644531 C 673.839844 387.359375 673.671875 386.121094 673.390625 384.929688 C 672.847656 385.066406 672.289062 385.195312 671.757812 385.339844 C 672.007812 386.398438 672.160156 387.5 672.160156 388.636719 C 672.160156 389.601562 672.058594 390.535156 671.878906 391.445312 L 668.648438 391.445312 C 668.878906 390.546875 669.015625 389.609375 669.015625 388.644531 C 669.015625 387.785156 668.914062 386.964844 668.730469 386.160156 C 665.550781 387.050781 662.5 387.984375 659.59375 388.976562 C 659.464844 389.867188 658.730469 390.5625 657.804688 390.5625 C 657.3125 390.5625 656.878906 390.363281 656.546875 390.058594 C 651.800781 391.785156 647.429688 393.648438 643.394531 395.636719 C 646 400.96875 651.472656 404.660156 657.804688 404.660156 C 666.644531 404.660156 673.839844 397.472656 673.839844 388.644531 Z M 466.710938 63.4375 L 469.777344 60.371094 L 469.777344 56.03125 L 466.710938 52.96875 L 462.367188 52.96875 L 459.304688 56.03125 L 459.304688 60.371094 L 462.367188 63.4375 Z M 363.625 63.4375 L 366.691406 60.371094 L 366.691406 56.03125 L 363.625 52.96875 L 359.289062 52.96875 L 356.21875 56.03125 L 356.21875 60.371094 L 359.289062 63.4375 Z M 359.289062 191.410156 L 356.21875 194.476562 L 356.21875 198.816406 L 359.289062 201.878906 L 363.625 201.878906 L 366.691406 198.816406 L 366.691406 194.476562 L 363.625 191.410156 Z M 469.777344 194.476562 L 466.710938 191.410156 L 462.367188 191.410156 L 459.304688 194.476562 L 459.304688 198.816406 L 462.367188 201.878906 L 466.710938 201.878906 L 469.777344 198.816406 Z M 365.003906 183.96875 L 459.589844 183.96875 L 459.589844 175.835938 L 365.003906 175.835938 Z M 365.003906 170.425781 L 459.589844 170.425781 L 459.589844 162.285156 L 365.003906 162.285156 Z M 459.589844 149.578125 L 365.003906 149.578125 L 365.003906 157.722656 L 459.589844 157.722656 Z M 701.816406 179.03125 C 699.9375 179.03125 698.414062 180.5625 698.414062 182.4375 L 698.414062 197.734375 L 650.09375 197.734375 L 650.09375 180.269531 L 641.679688 180.269531 L 641.679688 219.5 L 650.09375 219.5 L 650.09375 201.402344 L 698.414062 201.402344 L 698.414062 217.941406 C 698.414062 219.820312 699.9375 221.34375 701.816406 221.34375 L 709.921875 221.34375 C 711.800781 221.34375 713.332031 219.820312 713.324219 218.050781 L 717.695312 182.4375 C 717.695312 180.5625 716.164062 179.03125 714.285156 179.03125 Z M 647.601562 107.980469 L 639.1875 107.980469 L 639.1875 68.75 L 647.601562 68.75 L 647.601562 87.394531 L 696.070312 87.394531 L 696.070312 70.851562 C 696.070312 68.972656 697.601562 67.445312 699.480469 67.445312 L 707.582031 67.445312 C 709.464844 67.445312 710.992188 68.972656 710.992188 70.851562 L 715.347656 106.238281 C 715.355469 108.226562 713.824219 109.757812 711.945312 109.757812 L 699.480469 109.757812 C 697.601562 109.757812 696.070312 108.226562 696.070312 106.347656 L 696.070312 91.050781 L 647.601562 91.050781 L 647.601562 107.980469 " fill-opacity="1" fill-rule="nonzero"/><g clip-path="url(#79e95fba11)"><path fill="#141f35" d="M 624.28125 177.546875 C 622.375 177.378906 620.75 178.886719 620.777344 180.800781 L 621.375 220.269531 C 621.402344 222.125 622.996094 223.574219 624.851562 223.425781 L 641.375 222.078125 C 643.039062 221.941406 644.328125 220.546875 644.328125 218.875 L 644.328125 182.273438 C 644.328125 180.609375 643.054688 179.222656 641.394531 179.070312 Z M 621.789062 110.703125 L 638.902344 109.179688 C 640.5625 109.027344 641.835938 107.640625 641.835938 105.976562 L 641.835938 69.375 C 641.835938 67.703125 640.550781 66.308594 638.875 66.171875 L 622.363281 64.824219 C 620.503906 64.675781 618.90625 66.125 618.878906 67.980469 L 618.285156 107.449219 C 618.257812 109.363281 619.882812 110.871094 621.789062 110.703125 Z M 357.128906 198.4375 L 359.664062 200.964844 L 363.242188 200.964844 L 365.773438 198.4375 L 365.773438 194.859375 L 363.242188 192.328125 L 359.664062 192.328125 L 357.128906 194.859375 Z M 357.128906 59.988281 L 359.664062 62.519531 L 363.242188 62.519531 L 365.773438 59.988281 L 365.773438 56.410156 L 363.242188 53.882812 L 359.664062 53.882812 L 357.128906 56.410156 Z M 365.925781 183.058594 L 458.671875 183.058594 L 458.671875 176.746094 L 365.925781 176.746094 Z M 365.925781 169.507812 L 458.671875 169.507812 L 458.671875 163.195312 L 365.925781 163.195312 Z M 365.925781 156.804688 L 458.671875 156.804688 L 458.671875 150.5 L 365.925781 150.5 Z M 399.417969 133.902344 C 397.078125 133.902344 395.179688 135.792969 395.179688 138.132812 C 395.179688 140.472656 397.078125 142.371094 399.417969 142.371094 C 401.753906 142.371094 403.652344 140.472656 403.652344 138.132812 C 403.652344 135.792969 401.753906 133.902344 399.417969 133.902344 Z M 411.957031 133.902344 C 409.617188 133.902344 407.722656 135.792969 407.722656 138.132812 C 407.722656 140.472656 409.617188 142.371094 411.957031 142.371094 C 414.296875 142.371094 416.199219 140.472656 416.199219 138.132812 C 416.199219 135.792969 414.296875 133.902344 411.957031 133.902344 Z M 424.5 133.902344 C 422.160156 133.902344 420.261719 135.792969 420.261719 138.132812 C 420.261719 140.472656 422.160156 142.371094 424.5 142.371094 C 426.835938 142.371094 428.734375 140.472656 428.734375 138.132812 C 428.734375 135.792969 426.835938 133.902344 424.5 133.902344 Z M 390.507812 95.957031 C 390.507812 108.109375 400.371094 117.964844 412.535156 117.964844 C 424.699219 117.964844 434.554688 108.109375 434.554688 95.957031 C 434.554688 83.800781 424.699219 73.953125 412.535156 73.953125 C 400.371094 73.953125 390.507812 83.800781 390.507812 95.957031 Z M 460.214844 198.4375 L 462.746094 200.964844 L 466.328125 200.964844 L 468.859375 198.4375 L 468.859375 194.859375 L 466.328125 192.328125 L 462.746094 192.328125 L 460.214844 194.859375 Z M 460.214844 59.988281 L 462.746094 62.519531 L 466.328125 62.519531 L 468.859375 59.988281 L 468.859375 56.410156 L 466.328125 53.882812 L 462.746094 53.882812 L 460.214844 56.410156 Z M 344.933594 205.78125 L 344.933594 45.425781 C 344.933594 43.414062 346.566406 41.773438 348.585938 41.773438 L 476.007812 41.773438 C 478.027344 41.773438 479.664062 43.414062 479.664062 45.425781 L 479.664062 205.78125 C 479.664062 207.796875 478.027344 209.433594 476.007812 209.433594 L 348.585938 209.433594 C 346.566406 209.433594 344.933594 207.796875 344.933594 205.78125 Z M 412.535156 98.023438 C 413.625 98.023438 414.507812 97.132812 414.507812 96.042969 L 414.597656 96.042969 L 413.210938 83.972656 L 412.964844 81.863281 L 412.625 83.9375 L 410.785156 95.160156 C 410.648438 95.433594 410.554688 95.726562 410.554688 96.042969 C 410.554688 97.132812 411.441406 98.023438 412.535156 98.023438 Z M 436.316406 279.84375 L 471.707031 279.84375 C 473.210938 279.84375 474.429688 278.621094 474.429688 277.117188 L 474.429688 274.675781 L 486.320312 274.675781 L 486.320312 259.699219 L 474.429688 259.699219 L 474.429688 257.515625 C 474.429688 256.003906 473.210938 254.789062 471.707031 254.789062 L 436.316406 254.789062 C 434.8125 254.789062 433.59375 256.003906 433.59375 257.515625 L 433.59375 259.699219 L 427.386719 259.699219 L 427.386719 274.675781 L 433.59375 274.675781 L 433.59375 277.117188 C 433.59375 278.621094 434.8125 279.84375 436.316406 279.84375 Z M 646.503906 90.140625 L 696.988281 90.140625 L 696.988281 106.347656 C 696.988281 107.722656 698.105469 108.839844 699.480469 108.839844 L 711.945312 108.839844 C 713.324219 108.839844 714.441406 107.722656 714.441406 106.347656 L 710.078125 70.851562 C 710.078125 69.476562 708.960938 68.363281 707.582031 68.363281 L 699.480469 68.363281 C 698.105469 68.363281 696.988281 69.476562 696.988281 70.851562 L 696.988281 88.3125 L 646.503906 88.3125 Z M 645.996094 105.109375 L 645.769531 72.382812 C 645.742188 69.101562 648.484375 66.476562 651.761719 66.632812 L 667.597656 67.402344 C 679.605469 58.445312 705.816406 60.179688 710.332031 60.554688 L 738.246094 55.996094 C 742.152344 55.363281 745.832031 58.003906 746.472656 61.90625 L 746.636719 62.871094 C 746.699219 63.265625 746.730469 63.65625 746.730469 64.035156 C 746.730469 66.402344 745.589844 68.519531 743.785156 69.824219 L 752.382812 69.257812 C 754.539062 69.125 756.730469 69.625 758.480469 70.90625 C 760.632812 72.476562 761.929688 74.851562 762.109375 77.46875 C 762.113281 77.667969 762.121094 77.863281 762.121094 78.054688 C 762.121094 80.375 761.214844 82.496094 759.726562 84.082031 C 763.988281 84.875 767.171875 88.734375 766.914062 93.269531 C 766.640625 98.003906 762.457031 101.582031 757.703125 101.582031 L 756.527344 101.582031 C 759.023438 103.28125 760.605469 106.226562 760.371094 109.519531 C 760.039062 114.199219 755.878906 117.699219 751.183594 117.699219 L 707.558594 117.699219 L 717.867188 125.066406 C 719.996094 126.582031 721.515625 128.894531 721.792969 131.496094 C 722.039062 133.847656 721.363281 136.132812 719.902344 137.96875 C 716.933594 141.675781 711.453125 142.179688 707.59375 139.417969 L 681.585938 120.835938 C 675.882812 119.148438 671.207031 114.441406 669.328125 112.320312 L 651.222656 110.761719 C 648.28125 110.511719 646.015625 108.0625 645.996094 105.109375 Z M 900.832031 345.40625 C 899.695312 345.40625 898.769531 347.25 898.769531 349.519531 C 898.769531 351.800781 899.695312 353.640625 900.832031 353.640625 C 901.96875 353.640625 902.894531 351.800781 902.894531 349.519531 C 902.894531 347.25 901.96875 345.40625 900.832031 345.40625 Z M 716.777344 182.4375 C 716.777344 181.066406 715.660156 179.949219 714.285156 179.949219 L 701.824219 179.949219 C 700.441406 179.949219 699.324219 181.066406 699.324219 182.4375 L 699.324219 198.652344 L 648.847656 198.652344 L 648.847656 200.484375 L 699.324219 200.484375 L 699.324219 217.941406 C 699.324219 219.316406 700.441406 220.433594 701.824219 220.433594 L 709.921875 220.433594 C 711.296875 220.433594 712.414062 219.316406 712.414062 217.941406 Z M 769.269531 196.035156 C 769.269531 200.347656 766.15625 203.945312 762.066406 204.707031 C 763.550781 206.292969 764.464844 208.421875 764.464844 210.734375 C 764.464844 210.929688 764.457031 211.128906 764.441406 211.316406 C 764.285156 213.671875 763.222656 215.820312 761.453125 217.378906 C 759.679688 218.929688 757.410156 219.703125 755.058594 219.546875 L 746.125 218.964844 C 747.921875 220.277344 749.066406 222.390625 749.066406 224.75 C 749.066406 225.140625 749.03125 225.527344 748.972656 225.914062 L 748.816406 226.878906 C 748.175781 230.777344 744.484375 233.429688 740.585938 232.792969 L 712.671875 228.234375 C 708.152344 228.613281 681.941406 230.347656 669.933594 221.390625 L 648.0625 222.445312 L 648.363281 178.472656 L 671.664062 176.464844 C 673.539062 174.351562 678.222656 169.644531 683.921875 167.957031 L 710.214844 149.171875 C 714.167969 146.34375 719.695312 147.253906 722.527344 151.210938 C 723.609375 152.722656 724.183594 154.496094 724.183594 156.339844 C 724.183594 159.183594 722.800781 161.871094 720.484375 163.523438 L 709.894531 171.09375 L 753.898438 171.09375 C 758.773438 171.09375 762.734375 175.046875 762.734375 179.914062 C 762.734375 182.941406 761.195312 185.621094 758.863281 187.214844 L 760.433594 187.214844 C 765.308594 187.214844 769.269531 191.171875 769.269531 196.035156 Z M 919.128906 368.597656 C 918.550781 369.082031 917.957031 369.496094 917.359375 369.878906 C 916.394531 370.484375 915.417969 370.964844 914.445312 371.238281 L 917.953125 376.796875 L 918.378906 377.476562 C 918.378906 377.476562 918.671875 374.039062 919.128906 368.597656 Z M 921 338.554688 C 921.210938 338.578125 921.417969 338.597656 921.628906 338.636719 C 921.648438 338.367188 921.667969 338.085938 921.695312 337.816406 Z M 798.378906 328.257812 L 798.046875 326.75 C 797.3125 323.070312 801.472656 320.476562 804.511719 322.675781 C 805.886719 323.667969 807.460938 324.675781 809.195312 325.667969 C 809.421875 325.789062 809.644531 325.917969 809.875 326.046875 C 810.113281 326.183594 810.359375 326.3125 810.613281 326.449219 C 811.285156 326.808594 811.980469 327.171875 812.707031 327.515625 L 812.707031 323.789062 C 812.707031 323.789062 861.601562 333.796875 891.652344 314.371094 L 892.835938 318.527344 C 893.066406 318.273438 893.304688 318.023438 893.515625 317.777344 C 895.878906 315.058594 900.324219 316.410156 900.730469 319.988281 L 903.390625 339.496094 L 911.382812 330.613281 L 923.355469 317.316406 C 923.609375 314.136719 923.847656 311.140625 924.050781 308.480469 C 925.820312 285.523438 915.445312 255.496094 868.203125 256.085938 C 820.953125 256.679688 790.960938 268.328125 790.960938 268.328125 L 800.335938 284.933594 C 800.335938 284.933594 790.183594 302.546875 798.378906 328.257812 Z M 1009.527344 473.699219 C 1009.527344 473.363281 1009.527344 473.03125 1009.519531 472.703125 C 1009.515625 472.214844 1009.507812 471.730469 1009.492188 471.25 C 1009.488281 470.941406 1009.480469 470.636719 1009.464844 470.332031 C 1009.453125 469.808594 1009.425781 469.296875 1009.398438 468.773438 C 1009.382812 468.5 1009.371094 468.234375 1009.359375 467.964844 C 1009.324219 467.351562 1009.277344 466.746094 1009.226562 466.140625 C 1009.214844 465.964844 1009.199219 465.792969 1009.1875 465.617188 C 1009.121094 464.828125 1009.042969 464.046875 1008.949219 463.265625 C 1008.949219 463.210938 1008.933594 463.15625 1008.929688 463.101562 C 1008.847656 462.386719 1008.75 461.679688 1008.648438 460.972656 C 1008.617188 460.742188 1008.574219 460.515625 1008.539062 460.292969 C 1008.453125 459.761719 1008.371094 459.230469 1008.273438 458.707031 C 1008.222656 458.433594 1008.167969 458.164062 1008.113281 457.890625 C 1008.023438 457.421875 1007.929688 456.953125 1007.824219 456.484375 C 1007.757812 456.191406 1007.691406 455.898438 1007.621094 455.605469 C 1007.511719 455.164062 1007.410156 454.726562 1007.296875 454.292969 C 1007.21875 453.992188 1007.132812 453.699219 1007.050781 453.410156 C 1006.933594 452.980469 1006.8125 452.566406 1006.683594 452.148438 C 1006.59375 451.851562 1006.492188 451.550781 1006.398438 451.257812 C 1006.265625 450.859375 1006.125 450.457031 1005.988281 450.0625 C 1005.878906 449.761719 1005.769531 449.46875 1005.65625 449.179688 C 1005.503906 448.785156 1005.355469 448.402344 1005.191406 448.015625 C 1005.074219 447.730469 1004.953125 447.445312 1004.824219 447.15625 C 1004.660156 446.777344 1004.484375 446.402344 1004.300781 446.027344 C 1004.171875 445.757812 1004.035156 445.476562 1003.898438 445.207031 C 1003.707031 444.832031 1003.511719 444.464844 1003.304688 444.105469 C 1003.164062 443.839844 1003.027344 443.582031 1002.871094 443.320312 C 1002.652344 442.949219 1002.429688 442.585938 1002.195312 442.21875 C 1002.046875 441.988281 1001.902344 441.742188 1001.746094 441.511719 C 1001.480469 441.117188 1001.203125 440.730469 1000.925781 440.347656 C 1000.78125 440.160156 1000.652344 439.96875 1000.507812 439.777344 C 1000.082031 439.21875 999.628906 438.667969 999.167969 438.132812 C 998.496094 437.371094 997.335938 437.289062 996.582031 437.957031 C 995.820312 438.621094 995.738281 439.785156 996.40625 440.546875 C 997.003906 441.226562 997.554688 441.949219 998.085938 442.683594 C 998.222656 442.871094 998.351562 443.0625 998.488281 443.246094 C 998.992188 443.980469 999.472656 444.738281 999.917969 445.511719 C 999.921875 445.53125 999.9375 445.546875 999.945312 445.558594 C 1000.394531 446.355469 1000.808594 447.183594 1001.195312 448.027344 C 1001.296875 448.238281 1001.394531 448.449219 1001.488281 448.667969 C 1001.851562 449.492188 1002.195312 450.328125 1002.511719 451.191406 C 1002.523438 451.21875 1002.539062 451.246094 1002.542969 451.28125 C 1002.863281 452.171875 1003.148438 453.089844 1003.421875 454.015625 C 1003.488281 454.246094 1003.550781 454.476562 1003.621094 454.707031 C 1003.863281 455.597656 1004.089844 456.503906 1004.292969 457.429688 C 1004.300781 457.46875 1004.3125 457.511719 1004.320312 457.558594 C 1004.53125 458.523438 1004.707031 459.503906 1004.871094 460.496094 C 1004.914062 460.742188 1004.945312 460.984375 1004.988281 461.222656 C 1005.128906 462.175781 1005.261719 463.128906 1005.363281 464.09375 C 1005.367188 464.148438 1005.375 464.195312 1005.382812 464.25 C 1005.492188 465.269531 1005.578125 466.304688 1005.648438 467.339844 C 1005.667969 467.582031 1005.683594 467.835938 1005.695312 468.078125 C 1005.757812 469.074219 1005.804688 470.066406 1005.832031 471.066406 C 1005.832031 471.113281 1005.839844 471.160156 1005.839844 471.207031 C 1005.867188 472.269531 1005.871094 473.332031 1005.867188 474.398438 C 1005.867188 474.636719 1005.867188 474.882812 1005.867188 475.121094 C 1005.851562 476.132812 1005.832031 477.152344 1005.796875 478.167969 C 1005.796875 478.214844 1005.789062 478.253906 1005.789062 478.296875 C 1005.75 479.378906 1005.695312 480.453125 1005.632812 481.527344 C 1005.621094 481.75 1005.605469 481.976562 1005.59375 482.199219 C 1005.523438 483.234375 1005.449219 484.265625 1005.363281 485.289062 C 1005.363281 485.316406 1005.355469 485.34375 1005.355469 485.371094 C 1005.265625 486.445312 1005.15625 487.511719 1005.050781 488.578125 C 1005.027344 488.785156 1005.007812 488.980469 1004.988281 489.183594 C 1004.878906 490.210938 1004.761719 491.238281 1004.640625 492.246094 C 1003.898438 498.382812 1002.9375 504.140625 1002.117188 509.066406 C 1001.773438 511.128906 1001.449219 513.046875 1001.175781 514.800781 C 999.414062 526.136719 995.996094 560.472656 995.960938 560.820312 C 995.859375 561.828125 996.59375 562.722656 997.601562 562.820312 C 997.664062 562.828125 997.726562 562.832031 997.785156 562.832031 C 998.71875 562.832031 999.515625 562.125 999.609375 561.179688 C 999.644531 560.839844 1003.054688 526.601562 1004.804688 515.363281 C 1005.070312 513.625 1005.390625 511.71875 1005.730469 509.671875 C 1005.980469 508.15625 1006.246094 506.5625 1006.511719 504.910156 C 1006.519531 504.875 1006.527344 504.84375 1006.53125 504.808594 C 1006.621094 504.25 1006.710938 503.6875 1006.804688 503.109375 C 1006.824219 502.980469 1006.847656 502.84375 1006.867188 502.707031 C 1006.949219 502.183594 1007.03125 501.652344 1007.109375 501.121094 C 1007.136719 500.9375 1007.164062 500.753906 1007.191406 500.570312 C 1007.269531 500.066406 1007.347656 499.5625 1007.425781 499.046875 C 1007.453125 498.851562 1007.480469 498.644531 1007.511719 498.441406 C 1007.582031 497.933594 1007.65625 497.429688 1007.730469 496.910156 C 1007.75 496.726562 1007.777344 496.539062 1007.804688 496.355469 C 1007.96875 495.128906 1008.132812 493.898438 1008.28125 492.640625 C 1008.289062 492.625 1008.289062 492.613281 1008.289062 492.597656 C 1008.335938 492.210938 1008.378906 491.824219 1008.425781 491.4375 C 1008.464844 491.0625 1008.511719 490.695312 1008.554688 490.3125 C 1008.59375 489.953125 1008.628906 489.585938 1008.671875 489.21875 C 1008.710938 488.8125 1008.75 488.402344 1008.792969 487.996094 C 1008.828125 487.640625 1008.859375 487.289062 1008.894531 486.933594 C 1008.929688 486.503906 1008.96875 486.078125 1009.011719 485.648438 C 1009.039062 485.292969 1009.066406 484.941406 1009.09375 484.582031 C 1009.125 484.152344 1009.160156 483.722656 1009.1875 483.292969 C 1009.214844 482.933594 1009.234375 482.574219 1009.261719 482.214844 C 1009.289062 481.785156 1009.316406 481.351562 1009.335938 480.914062 C 1009.359375 480.5625 1009.371094 480.207031 1009.390625 479.851562 C 1009.410156 479.40625 1009.425781 478.957031 1009.445312 478.511719 C 1009.460938 478.167969 1009.464844 477.820312 1009.480469 477.472656 C 1009.492188 477.015625 1009.5 476.5625 1009.507812 476.105469 C 1009.515625 475.765625 1009.519531 475.425781 1009.527344 475.085938 C 1009.527344 474.621094 1009.527344 474.160156 1009.527344 473.699219 Z M 955.066406 564.003906 C 954.796875 563.730469 950.902344 560.050781 944.816406 557.289062 C 944.789062 557.277344 944.761719 557.261719 944.734375 557.253906 C 944.097656 556.964844 943.441406 556.683594 942.753906 556.425781 C 942.660156 556.386719 942.550781 556.351562 942.449219 556.316406 C 941.828125 556.078125 941.203125 555.855469 940.550781 555.65625 C 940.359375 555.597656 940.160156 555.554688 939.972656 555.496094 C 939.386719 555.332031 938.808594 555.160156 938.203125 555.019531 C 937.921875 554.957031 937.621094 554.910156 937.332031 554.855469 C 936.800781 554.746094 936.273438 554.628906 935.722656 554.546875 C 935.347656 554.496094 934.953125 554.46875 934.566406 554.425781 C 934.089844 554.371094 933.621094 554.304688 933.128906 554.277344 C 932.625 554.25 932.109375 554.257812 931.59375 554.257812 C 931.203125 554.257812 930.824219 554.230469 930.429688 554.242188 C 929.507812 554.277344 928.578125 554.351562 927.628906 554.472656 C 926.628906 554.609375 925.921875 555.535156 926.058594 556.535156 C 926.195312 557.535156 927.105469 558.226562 928.121094 558.105469 C 928.875 558.003906 929.613281 557.957031 930.347656 557.921875 C 930.539062 557.914062 930.726562 557.910156 930.917969 557.910156 C 931.570312 557.894531 932.21875 557.910156 932.859375 557.941406 C 932.925781 557.949219 933 557.949219 933.074219 557.957031 C 933.777344 558.003906 934.464844 558.085938 935.144531 558.1875 C 935.316406 558.214844 935.484375 558.242188 935.664062 558.269531 C 936.234375 558.371094 936.800781 558.480469 937.355469 558.609375 C 937.464844 558.636719 937.570312 558.65625 937.675781 558.683594 C 938.316406 558.839844 938.941406 559.015625 939.554688 559.214844 C 939.707031 559.261719 939.855469 559.308594 940.003906 559.363281 C 940.503906 559.527344 940.992188 559.703125 941.46875 559.886719 C 941.589844 559.9375 941.71875 559.984375 941.84375 560.03125 C 942.402344 560.253906 942.945312 560.492188 943.46875 560.730469 C 943.605469 560.792969 943.734375 560.859375 943.871094 560.921875 C 944.28125 561.117188 944.679688 561.324219 945.070312 561.519531 C 945.207031 561.59375 945.339844 561.664062 945.476562 561.738281 C 945.933594 561.984375 946.375 562.234375 946.796875 562.480469 C 946.925781 562.5625 947.050781 562.636719 947.179688 562.710938 C 947.480469 562.894531 947.777344 563.078125 948.058594 563.261719 C 948.199219 563.355469 948.34375 563.445312 948.480469 563.535156 C 950.996094 565.199219 952.488281 566.601562 952.527344 566.640625 C 952.882812 566.980469 953.339844 567.152344 953.796875 567.152344 C 954.277344 567.152344 954.753906 566.960938 955.117188 566.585938 C 955.816406 565.859375 955.796875 564.703125 955.066406 564.003906 Z M 931.089844 512.785156 C 931.257812 513.65625 932.019531 514.261719 932.878906 514.261719 C 932.996094 514.261719 933.117188 514.257812 933.234375 514.230469 C 934.226562 514.039062 934.871094 513.078125 934.683594 512.085938 C 934.667969 511.992188 932.851562 501.980469 935.007812 470.167969 C 937.253906 437.085938 953.5625 428.5 953.734375 428.417969 C 954.632812 427.96875 955.007812 426.875 954.558594 425.972656 C 954.113281 425.066406 953.027344 424.691406 952.105469 425.132812 C 951.359375 425.5 933.75 434.546875 931.347656 469.921875 C 929.148438 502.40625 931.007812 512.378906 931.089844 512.785156 Z M 1091.949219 313.886719 L 1091.949219 310.867188 L 1080.71875 310.867188 L 1080.71875 313.152344 C 1080.71875 314.585938 1079.554688 315.75 1078.117188 315.75 L 1071.921875 315.75 L 1071.921875 325.503906 L 1079.300781 325.503906 C 1082.03125 325.503906 1084.242188 327.722656 1084.242188 330.441406 L 1084.242188 349.222656 C 1108.082031 354.480469 1125.914062 375.699219 1125.914062 401.097656 L 1125.914062 557.28125 C 1099.914062 690.457031 1061.351562 815.152344 1061.351562 815.152344 L 993.738281 815.152344 L 993.738281 814.351562 L 1030.976562 814.140625 L 1013.890625 727.601562 L 1018.207031 591.609375 L 1011.921875 570.8125 C 1011.765625 573.839844 1011.453125 578.019531 1010.984375 582.714844 C 1010.964844 558.964844 1009.949219 531.675781 1006.683594 506.195312 L 1006.683594 506.210938 C 1009.941406 531.683594 1010.964844 558.96875 1010.984375 582.714844 C 1010.757812 584.9375 1010.5 587.277344 1010.203125 589.664062 C 1010.1875 589.789062 1010.175781 589.910156 1010.152344 590.027344 C 1010.09375 590.523438 1010.03125 591.019531 1009.964844 591.515625 C 1009.9375 591.710938 1009.910156 591.910156 1009.882812 592.113281 C 1009.820312 592.589844 1009.753906 593.066406 1009.691406 593.550781 C 1009.65625 593.753906 1009.628906 593.964844 1009.59375 594.167969 C 1009.460938 595.167969 1009.308594 596.160156 1009.152344 597.148438 C 1009.140625 597.257812 1009.121094 597.359375 1009.105469 597.46875 C 1009.042969 597.855469 1008.976562 598.25 1008.914062 598.636719 C 1008.859375 598.964844 1008.804688 599.289062 1008.75 599.617188 C 1008.691406 599.976562 1008.628906 600.335938 1008.566406 600.691406 C 1008.507812 601.050781 1008.4375 601.410156 1008.378906 601.773438 C 1008.316406 602.113281 1008.253906 602.4375 1008.195312 602.773438 C 1008.113281 603.199219 1008.03125 603.617188 1007.949219 604.03125 C 1007.894531 604.296875 1007.847656 604.566406 1007.792969 604.828125 C 1007.664062 605.472656 1007.535156 606.105469 1007.390625 606.738281 C 1007.34375 606.984375 1007.28125 607.21875 1007.226562 607.464844 C 1007.132812 607.894531 1007.035156 608.308594 1006.941406 608.722656 C 1006.878906 608.980469 1006.820312 609.234375 1006.757812 609.484375 C 1006.660156 609.894531 1006.558594 610.292969 1006.457031 610.6875 C 1006.398438 610.914062 1006.34375 611.144531 1006.28125 611.375 C 1006.152344 611.859375 1006.015625 612.335938 1005.878906 612.804688 C 1005.84375 612.925781 1005.8125 613.054688 1005.777344 613.171875 C 1005.605469 613.742188 1005.4375 614.300781 1005.261719 614.84375 C 1005.207031 615.007812 1005.152344 615.171875 1005.097656 615.335938 C 1004.96875 615.714844 1004.835938 616.089844 1004.707031 616.457031 C 1004.640625 616.632812 1004.578125 616.8125 1004.511719 616.988281 C 1004.382812 617.335938 1004.246094 617.667969 1004.117188 617.996094 C 1004.046875 618.152344 1003.988281 618.308594 1003.925781 618.457031 C 1003.75 618.863281 1003.566406 619.257812 1003.386719 619.632812 C 1003.359375 619.679688 1003.339844 619.730469 1003.320312 619.777344 C 1003.117188 620.191406 1002.90625 620.578125 1002.695312 620.9375 C 1002.632812 621.046875 1002.570312 621.144531 1002.503906 621.246094 C 1002.351562 621.503906 1002.195312 621.742188 1002.035156 621.972656 C 1001.957031 622.074219 1001.882812 622.183594 1001.808594 622.285156 C 1001.644531 622.488281 1001.488281 622.679688 1001.324219 622.863281 C 1001.257812 622.945312 1001.183594 623.027344 1001.109375 623.101562 C 1000.890625 623.332031 1000.664062 623.539062 1000.441406 623.707031 C 1000.425781 623.722656 1000.414062 623.734375 1000.398438 623.742188 C 1000.160156 623.925781 999.917969 624.0625 999.664062 624.175781 C 999.589844 624.21875 999.515625 624.238281 999.441406 624.265625 C 999.257812 624.332031 999.078125 624.386719 998.894531 624.421875 C 998.808594 624.441406 998.71875 624.449219 998.625 624.460938 C 998.445312 624.476562 998.257812 624.476562 998.070312 624.457031 C 997.992188 624.449219 997.910156 624.449219 997.820312 624.433594 C 997.554688 624.386719 997.277344 624.3125 997.003906 624.191406 C 991.007812 621.539062 985.308594 617.226562 979.925781 611.769531 C 977.6875 613.53125 975.507812 614.914062 973.703125 615.574219 L 836.089844 666.203125 C 828.160156 651.59375 816.8125 631.835938 809.925781 620.988281 L 828.035156 610.425781 C 826.859375 609.988281 825.722656 609.410156 824.675781 608.640625 C 821.699219 606.453125 819.800781 603.234375 819.332031 599.570312 L 812.328125 544.746094 C 812.199219 543.746094 812.90625 542.828125 813.914062 542.699219 C 814.933594 542.585938 815.832031 543.285156 815.960938 544.285156 L 822.972656 599.105469 C 823.3125 601.765625 824.6875 604.105469 826.847656 605.691406 C 828.648438 607.023438 830.800781 607.628906 832.992188 607.535156 L 902.125 567.21875 L 898.660156 534.703125 C 898.554688 533.703125 899.28125 532.796875 900.289062 532.6875 C 901.289062 532.585938 902.195312 533.3125 902.304688 534.3125 L 905.597656 565.199219 L 923.558594 554.71875 L 928.714844 509.761719 C 927.507812 505.898438 926.492188 502.488281 925.703125 499.742188 C 925.5625 499.230469 925.363281 498.75 925.140625 498.285156 C 925.058594 498.117188 924.960938 497.964844 924.875 497.804688 C 924.71875 497.523438 924.554688 497.25 924.371094 496.992188 C 924.234375 496.804688 924.097656 496.621094 923.949219 496.4375 C 923.792969 496.253906 923.628906 496.074219 923.457031 495.898438 C 923.269531 495.695312 923.070312 495.496094 922.859375 495.3125 C 922.769531 495.230469 922.667969 495.164062 922.566406 495.089844 C 921.265625 494.042969 919.699219 493.359375 918.007812 493.125 C 913.589844 448.390625 939.738281 425.230469 943.203125 422.378906 L 965.058594 424.441406 C 977.800781 424.367188 987.03125 427.515625 993.738281 432.410156 L 993.738281 401.097656 C 993.738281 375.699219 1011.578125 354.480469 1035.40625 349.222656 L 1035.40625 330.441406 C 1035.40625 327.722656 1037.617188 325.503906 1040.347656 325.503906 L 1047.726562 325.503906 L 1047.726562 315.75 L 1044.730469 315.75 C 1043.300781 315.75 1042.136719 314.585938 1042.136719 313.152344 L 1042.136719 310.867188 L 1036.277344 310.867188 L 1036.277344 296.710938 L 1042.136719 296.710938 L 1042.136719 294.671875 C 1042.136719 293.242188 1043.300781 292.082031 1044.730469 292.082031 L 1047.726562 292.082031 L 1047.726562 286.46875 L 1071.921875 286.46875 L 1071.921875 292.082031 L 1078.117188 292.082031 C 1079.554688 292.082031 1080.71875 293.242188 1080.71875 294.671875 L 1080.71875 296.710938 L 1091.949219 296.710938 L 1091.949219 295.40625 C 1091.949219 293.972656 1093.113281 292.816406 1094.542969 292.816406 L 1103.574219 292.816406 C 1106.964844 288.367188 1112.292969 285.488281 1118.316406 285.488281 C 1128.566406 285.488281 1136.871094 293.792969 1136.871094 304.039062 C 1136.871094 314.28125 1128.566406 322.578125 1118.316406 322.578125 C 1112.871094 322.578125 1107.984375 320.21875 1104.589844 316.476562 L 1094.542969 316.476562 C 1093.113281 316.476562 1091.949219 315.320312 1091.949219 313.886719 Z M 651.441406 638.441406 L 646.703125 633.875 L 644 631.265625 L 633.074219 646.804688 C 633.867188 646.535156 634.742188 646.417969 635.601562 646.507812 C 636.628906 646.609375 637.609375 646.957031 638.304688 647.589844 L 644.734375 653.851562 L 658.695312 667.457031 C 658.921875 667.0625 659.289062 666.75 659.757812 666.605469 L 675.699219 661.851562 Z M 702.660156 672.378906 L 690.761719 661.679688 C 689.101562 660.183594 686.542969 660.320312 685.042969 661.980469 L 680.761719 666.734375 L 678.667969 664.714844 C 678.558594 664.769531 678.46875 664.84375 678.351562 664.882812 L 661.28125 669.972656 L 670.105469 678.570312 L 665.808594 683.335938 C 664.3125 684.996094 664.449219 687.554688 666.109375 689.050781 L 667.988281 690.738281 L 668.101562 690.691406 C 670.921875 689.59375 673.089844 692.390625 672.371094 694.675781 L 678.007812 699.75 C 679.667969 701.238281 682.226562 701.109375 683.722656 699.449219 L 684.773438 698.28125 L 693.449219 706.089844 L 703.007812 680.625 L 703.300781 680.5 L 701.910156 679.257812 L 702.960938 678.09375 C 704.457031 676.425781 704.320312 673.875 702.660156 672.378906 Z M 907.550781 360.300781 C 907.648438 359.605469 907.761719 358.886719 907.945312 358.117188 C 907.945312 358.117188 908.597656 354.464844 910.050781 350.308594 L 905.53125 355.160156 L 905.863281 357.628906 Z M 626.835938 652.492188 C 626.011719 651.914062 625.8125 650.765625 626.390625 649.941406 L 641.09375 629.019531 C 641.175781 628.902344 641.292969 628.835938 641.386719 628.742188 L 638.070312 625.542969 C 636.308594 623.84375 633.503906 623.882812 631.789062 625.632812 L 603.289062 681.808594 C 604.132812 681.808594 604.984375 681.46875 605.664062 680.699219 L 624.691406 658.871094 L 628.496094 652.683594 C 628.296875 652.75 628.101562 652.824219 627.890625 652.824219 C 627.527344 652.824219 627.160156 652.714844 626.835938 652.492188 Z M 759.074219 730.671875 L 751.476562 723.835938 C 743.738281 731.746094 736.40625 738.21875 731.335938 739.695312 C 731.191406 739.738281 731.050781 739.75 730.914062 739.785156 L 736.34375 744.675781 L 759.285156 744.675781 L 760.039062 743.832031 L 756.746094 740.867188 L 759.453125 737.851562 C 761.332031 735.765625 761.164062 732.554688 759.074219 730.671875 Z M 509.664062 662.871094 L 489.640625 644.355469 C 488.898438 643.671875 487.742188 643.710938 487.054688 644.460938 C 486.367188 645.199219 486.40625 646.355469 487.148438 647.042969 L 507.175781 665.566406 C 507.527344 665.890625 507.976562 666.046875 508.421875 666.046875 C 508.917969 666.046875 509.40625 665.851562 509.769531 665.460938 C 510.457031 664.722656 510.40625 663.566406 509.664062 662.871094 Z M 496.597656 618.835938 L 501.015625 625.328125 C 501.367188 625.84375 501.945312 626.121094 502.53125 626.121094 C 502.886719 626.121094 503.246094 626.019531 503.558594 625.800781 C 504.398438 625.238281 504.613281 624.09375 504.042969 623.257812 L 499.625 616.777344 C 499.054688 615.941406 497.910156 615.722656 497.082031 616.292969 C 496.242188 616.867188 496.023438 618.007812 496.597656 618.835938 Z M 453.347656 710.148438 C 453.347656 710.148438 453.339844 710.148438 453.339844 710.148438 C 452.332031 710.148438 451.511719 710.964844 451.511719 711.972656 C 451.503906 712.984375 452.3125 713.808594 453.328125 713.816406 L 472.671875 713.929688 C 472.671875 713.929688 472.679688 713.929688 472.679688 713.929688 C 473.6875 713.929688 474.507812 713.121094 474.515625 712.109375 C 474.515625 711.101562 473.707031 710.273438 472.691406 710.265625 Z M 426.285156 698.804688 L 458.683594 703.3125 C 458.765625 703.328125 458.855469 703.335938 458.9375 703.335938 C 459.835938 703.335938 460.625 702.667969 460.753906 701.75 C 460.890625 700.75 460.1875 699.832031 459.1875 699.6875 L 426.789062 695.179688 C 425.789062 695.015625 424.855469 695.738281 424.71875 696.738281 C 424.582031 697.738281 425.277344 698.660156 426.285156 698.804688 Z M 436.957031 670.917969 L 446.675781 675.398438 C 446.929688 675.515625 447.1875 675.5625 447.445312 675.5625 C 448.140625 675.5625 448.800781 675.175781 449.113281 674.503906 C 449.535156 673.585938 449.132812 672.496094 448.214844 672.074219 L 438.496094 667.589844 C 437.570312 667.171875 436.488281 667.570312 436.058594 668.488281 C 435.636719 669.402344 436.039062 670.488281 436.957031 670.917969 Z M 414.429688 714.09375 C 414.441406 713.085938 413.636719 712.25 412.632812 712.230469 L 408.007812 712.136719 L 396.253906 711.90625 C 395.191406 711.953125 394.402344 712.6875 394.382812 713.699219 C 394.363281 714.707031 395.164062 715.542969 396.179688 715.5625 L 408.007812 715.800781 L 412.554688 715.890625 C 412.570312 715.890625 412.578125 715.890625 412.589844 715.890625 C 413.582031 715.890625 414.40625 715.09375 414.429688 714.09375 Z M 387.71875 414.222656 C 387.71875 413.210938 386.894531 412.386719 385.886719 412.386719 C 384.875 412.386719 384.050781 413.210938 384.050781 414.222656 L 384.050781 736.035156 C 384.050781 737.050781 384.875 737.871094 385.886719 737.871094 C 386.894531 737.871094 387.71875 737.050781 387.71875 736.035156 Z M 522.269531 369.722656 L 522.269531 603.03125 L 518.308594 595.105469 C 517.855469 594.210938 516.757812 593.839844 515.851562 594.289062 C 514.941406 594.738281 514.578125 595.839844 515.027344 596.753906 L 519.746094 606.167969 C 520.066406 606.8125 520.710938 607.179688 521.386719 607.179688 C 521.660156 607.179688 521.9375 607.117188 522.203125 606.988281 C 522.230469 606.976562 522.246094 606.949219 522.269531 606.929688 L 522.269531 649.132812 C 519.929688 648.785156 517.609375 651.273438 518.949219 653.839844 L 522.269531 660.179688 L 522.269531 690.296875 L 473.964844 669.074219 C 470.542969 667.578125 467.730469 672.113281 470.601562 674.503906 L 519.152344 714.929688 C 521.183594 716.625 520.425781 719.902344 517.859375 720.535156 L 421.699219 744.183594 C 421.269531 744.292969 420.90625 744.464844 420.59375 744.675781 L 335.21875 744.675781 L 303.546875 813.621094 L 291.167969 813.621094 L 291.167969 450.382812 C 291.167969 426.234375 306.523438 405.675781 328.003906 397.90625 L 328.003906 379.9375 C 328.003906 377.074219 330.324219 374.753906 333.191406 374.753906 L 365.984375 374.753906 C 368.851562 374.753906 371.171875 377.074219 371.171875 379.9375 L 371.171875 397.90625 C 375.132812 399.34375 378.878906 401.214844 382.363281 403.457031 L 382.363281 369.722656 C 382.363281 342.929688 401.265625 320.558594 426.46875 315.179688 L 426.46875 295.359375 C 426.46875 292.496094 428.796875 290.167969 431.65625 290.167969 L 472.976562 290.167969 C 475.84375 290.167969 478.164062 292.496094 478.164062 295.359375 L 478.164062 315.179688 C 503.371094 320.558594 522.269531 342.929688 522.269531 369.722656 Z M 520.679688 711.953125 L 522.269531 713.285156 L 522.269531 709.367188 C 520.644531 708.652344 519.3125 710.816406 520.679688 711.953125 Z M 522.269531 744.675781 L 522.269531 740.363281 L 504.765625 744.675781 Z M 530.65625 267.445312 C 530.65625 258.390625 523.292969 251.03125 514.234375 251.03125 C 505.171875 251.03125 497.808594 258.390625 497.808594 267.445312 C 497.808594 276.5 505.171875 283.859375 514.234375 283.859375 C 523.292969 283.859375 530.65625 276.5 530.65625 267.445312 Z M 533.875 267.445312 C 533.875 278.289062 525.082031 287.074219 514.234375 287.074219 C 503.382812 287.074219 494.589844 278.289062 494.589844 267.445312 C 494.589844 256.605469 503.382812 247.816406 514.234375 247.816406 C 525.082031 247.816406 533.875 256.605469 533.875 267.445312 Z M 333.953125 363.402344 C 333.953125 364.90625 335.171875 366.125 336.675781 366.125 L 365.332031 366.125 C 366.835938 366.125 368.054688 364.90625 368.054688 363.402344 L 368.054688 361.8125 L 377.984375 361.8125 L 377.984375 349.304688 L 368.054688 349.304688 L 368.054688 347.921875 C 368.054688 346.425781 366.835938 345.203125 365.332031 345.203125 L 336.675781 345.203125 C 335.171875 345.203125 333.953125 346.425781 333.953125 347.921875 L 333.953125 349.304688 L 328.773438 349.304688 L 328.773438 361.8125 L 333.953125 361.8125 Z M 513.605469 253.414062 L 511.925781 265.800781 C 511.769531 266.144531 511.667969 266.519531 511.667969 266.929688 C 511.667969 267.039062 511.722656 267.125 511.726562 267.226562 L 511.714844 267.355469 L 511.753906 267.355469 C 511.964844 268.667969 513.054688 269.683594 514.421875 269.683594 C 515.949219 269.683594 517.179688 268.453125 517.179688 266.929688 C 517.179688 266.4375 517.015625 265.996094 516.792969 265.59375 Z M 903.582031 377.476562 C 902.445312 377.476562 901.519531 379.320312 901.519531 381.597656 C 901.519531 383.875 902.445312 385.71875 903.582031 385.71875 C 904.71875 385.71875 905.644531 383.875 905.644531 381.597656 C 905.644531 379.320312 904.71875 377.476562 903.582031 377.476562 Z M 729.996094 396.382812 C 729.996094 395.179688 729.015625 394.199219 727.804688 394.199219 C 726.597656 394.199219 725.617188 395.179688 725.617188 396.382812 C 725.617188 397.59375 726.597656 398.574219 727.804688 398.574219 C 729.015625 398.574219 729.996094 397.59375 729.996094 396.382812 Z M 730.851562 396.382812 C 730.851562 398.070312 729.492188 399.429688 727.804688 399.429688 C 726.121094 399.429688 724.761719 398.070312 724.761719 396.382812 C 724.761719 394.703125 726.121094 393.34375 727.804688 393.34375 C 729.492188 393.34375 730.851562 394.703125 730.851562 396.382812 Z M 712.40625 390.078125 C 714.449219 390.078125 716.097656 388.433594 716.097656 386.398438 C 716.097656 384.359375 714.449219 382.710938 712.40625 382.710938 C 710.371094 382.710938 708.722656 384.359375 708.722656 386.398438 C 708.722656 388.433594 710.371094 390.078125 712.40625 390.078125 Z M 712.40625 391.519531 C 709.574219 391.519531 707.273438 389.226562 707.273438 386.398438 C 707.273438 383.5625 709.574219 381.269531 712.40625 381.269531 C 715.246094 381.269531 717.539062 383.5625 717.539062 386.398438 C 717.539062 389.226562 715.246094 391.519531 712.40625 391.519531 Z M 728.449219 404.402344 C 727.238281 404.402344 726.257812 405.382812 726.257812 406.585938 C 726.257812 407.796875 727.238281 408.777344 728.449219 408.777344 C 729.65625 408.777344 730.632812 407.796875 730.632812 406.585938 C 730.632812 405.382812 729.65625 404.402344 728.449219 404.402344 Z M 728.449219 403.546875 C 730.132812 403.546875 731.492188 404.90625 731.492188 406.585938 C 731.492188 408.273438 730.132812 409.632812 728.449219 409.632812 C 726.761719 409.632812 725.398438 408.273438 725.398438 406.585938 C 725.398438 404.90625 726.761719 403.546875 728.449219 403.546875 Z M 926.417969 420.792969 L 912.59375 419.488281 C 910.980469 424.664062 907.0625 428.992188 901.730469 430.992188 L 860.191406 444.070312 C 854.601562 446.171875 825.945312 431.492188 825.945312 431.492188 C 825.871094 431.445312 825.8125 431.386719 825.734375 431.332031 C 820.121094 443.027344 817.941406 456.082031 819.472656 468.964844 L 822.726562 496.300781 L 823.90625 506.238281 L 829.316406 505.460938 L 865.867188 500.210938 L 890.078125 496.734375 L 892.789062 481.804688 C 896.652344 460.523438 906.796875 440.878906 921.921875 425.40625 Z M 872.917969 92.828125 C 872.917969 99.96875 885.742188 108.761719 886.289062 109.128906 C 886.445312 109.238281 886.621094 109.292969 886.804688 109.292969 C 887.097656 109.292969 887.382812 109.152344 887.558594 108.894531 C 887.847656 108.472656 887.738281 107.90625 887.316406 107.621094 C 883.824219 105.238281 874.75 97.957031 874.75 92.828125 C 874.75 88.234375 899.355469 66.660156 914.867188 54.144531 C 915.261719 53.828125 915.324219 53.25 915.003906 52.855469 C 914.683594 52.464844 914.113281 52.40625 913.71875 52.71875 C 909.539062 56.089844 872.917969 85.847656 872.917969 92.828125 Z M 908.230469 91.625 C 905.359375 94.113281 905.054688 98.464844 907.550781 101.335938 L 920.394531 116.09375 C 922.894531 118.964844 927.242188 119.273438 930.121094 116.777344 L 960.296875 90.554688 L 938.40625 65.402344 Z M 937.839844 174.894531 C 937.363281 175.074219 937.121094 175.601562 937.296875 176.074219 C 937.433594 176.445312 937.78125 176.675781 938.152344 176.675781 C 938.261719 176.675781 938.363281 176.65625 938.46875 176.617188 C 969.539062 165.238281 988.039062 134.546875 988.214844 134.242188 C 988.480469 133.808594 988.332031 133.242188 987.894531 132.992188 C 987.46875 132.726562 986.902344 132.867188 986.644531 133.308594 C 986.460938 133.609375 968.285156 163.742188 937.839844 174.894531 Z M 853.566406 86.570312 C 852.636719 81.503906 854.628906 76.339844 858.722656 73.210938 L 891.34375 48.285156 C 894.402344 45.949219 898.292969 45.003906 902.078125 45.679688 L 920.394531 48.949219 C 923.492188 49.5 926.308594 51.105469 928.367188 53.488281 L 994.347656 129.929688 C 995.933594 131.765625 997.003906 133.996094 997.445312 136.378906 L 997.949219 139.113281 C 998.828125 143.839844 997.152344 148.683594 993.550781 151.867188 L 958.894531 182.472656 C 956.238281 184.820312 952.773438 186.042969 949.234375 185.894531 L 936.324219 185.34375 C 932.523438 185.179688 928.972656 183.453125 926.5 180.574219 L 895.640625 144.59375 L 906.855469 132.417969 C 908.265625 130.882812 908.171875 128.5 906.632812 127.085938 L 894.890625 116.277344 C 893.359375 114.871094 890.96875 114.964844 889.554688 116.496094 L 880.222656 126.625 L 858.082031 100.8125 C 856.507812 98.976562 855.445312 96.757812 855.011719 94.378906 Z M 659.59375 388.976562 C 658.558594 389.332031 657.550781 389.691406 656.546875 390.058594 C 656.878906 390.363281 657.3125 390.5625 657.804688 390.5625 C 658.730469 390.5625 659.464844 389.867188 659.59375 388.976562 Z M 736.378906 585.148438 C 736.058594 584.191406 735.023438 583.667969 734.066406 583.992188 C 730.179688 585.277344 724.214844 582.148438 720.410156 579.59375 C 719.308594 578.851562 718.382812 578.164062 717.742188 577.640625 C 716.960938 576.992188 715.804688 577.109375 715.164062 577.890625 C 714.523438 578.675781 714.632812 579.832031 715.414062 580.46875 C 716.175781 581.09375 720.757812 584.742188 725.992188 586.699219 C 727.972656 587.441406 730.050781 587.953125 732.050781 587.953125 C 733.140625 587.953125 734.207031 587.800781 735.222656 587.460938 C 736.183594 587.140625 736.707031 586.109375 736.378906 585.148438 Z M 799.359375 480.949219 C 799.355469 481.308594 799.359375 481.683594 799.359375 482.042969 C 799.355469 482.90625 799.375 483.769531 799.402344 484.636719 C 799.414062 485.003906 799.429688 485.363281 799.449219 485.722656 C 799.511719 486.90625 799.59375 488.097656 799.722656 489.289062 L 801.867188 509.617188 C 801.851562 509.625 801.832031 509.636719 801.816406 509.636719 C 801.226562 509.847656 800.660156 510.101562 800.128906 510.394531 C 800.042969 510.441406 799.953125 510.488281 799.871094 510.542969 C 799.46875 510.765625 799.09375 511.039062 798.726562 511.304688 C 798.625 511.386719 798.503906 511.445312 798.402344 511.527344 C 798.332031 511.589844 798.273438 511.652344 798.203125 511.707031 C 797.824219 512.023438 797.46875 512.371094 797.136719 512.730469 C 797.03125 512.847656 796.925781 512.957031 796.820312 513.074219 C 794.71875 515.546875 793.648438 518.882812 794.203125 522.351562 C 795.074219 527.894531 796.214844 535.082031 797.515625 543.148438 L 731.695312 593.972656 L 672.089844 652.464844 C 669.714844 648.90625 667.117188 645.09375 664.535156 641.378906 L 686.34375 624.019531 C 687.132812 623.386719 687.269531 622.230469 686.636719 621.441406 C 686.003906 620.652344 684.855469 620.523438 684.0625 621.148438 L 662.433594 638.363281 C 657.941406 631.957031 653.734375 626.15625 651.203125 622.964844 L 695.261719 547.5625 L 719.328125 524.058594 L 638.039062 524.058594 L 638.039062 517.804688 L 722.234375 517.804688 L 722.234375 521.222656 L 791.792969 453.273438 C 796.5 446.675781 808.277344 439.152344 820.707031 432.492188 C 810.257812 442.382812 803.261719 455.273438 800.578125 469.230469 C 800.492188 469.691406 800.414062 470.152344 800.339844 470.617188 C 800.21875 471.304688 800.109375 471.984375 800.015625 472.675781 C 799.945312 473.167969 799.886719 473.65625 799.824219 474.148438 C 799.726562 474.9375 799.652344 475.71875 799.59375 476.507812 C 799.558594 476.867188 799.523438 477.222656 799.496094 477.582031 C 799.421875 478.703125 799.382812 479.820312 799.359375 480.949219 Z M 729.832031 384.957031 C 729.832031 383.746094 728.851562 382.765625 727.648438 382.765625 C 726.433594 382.765625 725.453125 383.746094 725.453125 384.957031 C 725.453125 386.160156 726.433594 387.140625 727.648438 387.140625 C 728.851562 387.140625 729.832031 386.160156 729.832031 384.957031 Z M 730.6875 384.957031 C 730.6875 386.636719 729.328125 387.996094 727.648438 387.996094 C 725.964844 387.996094 724.597656 386.636719 724.597656 384.957031 C 724.597656 383.269531 725.964844 381.910156 727.648438 381.910156 C 729.328125 381.910156 730.6875 383.269531 730.6875 384.957031 Z M 643.394531 395.636719 C 642.035156 396.308594 640.699219 396.996094 639.40625 397.695312 C 642.761719 404.476562 649.726562 409.148438 657.804688 409.148438 C 669.136719 409.148438 678.332031 399.96875 678.332031 388.636719 C 678.332031 386.996094 678.113281 385.40625 677.753906 383.875 C 676.269531 384.214844 674.8125 384.5625 673.390625 384.929688 C 673.671875 386.121094 673.839844 387.359375 673.839844 388.644531 C 673.839844 397.472656 666.644531 404.660156 657.804688 404.660156 C 651.472656 404.660156 646 400.96875 643.394531 395.636719 Z M 722.234375 488.234375 L 638.039062 488.234375 L 638.039062 494.484375 L 722.234375 494.484375 Z M 722.234375 478.382812 L 638.039062 478.382812 L 638.039062 484.636719 L 722.234375 484.636719 Z M 638.039062 514.203125 L 722.234375 514.203125 L 722.234375 507.949219 L 638.039062 507.949219 Z M 722.234375 498.09375 L 638.039062 498.09375 L 638.039062 504.339844 L 722.234375 504.339844 Z M 810.019531 541.933594 C 810.101562 541.933594 810.183594 541.925781 810.273438 541.917969 L 906.332031 528.667969 C 907.332031 528.53125 908.035156 527.609375 907.890625 526.609375 C 907.753906 525.601562 906.828125 524.894531 905.828125 525.042969 L 809.769531 538.285156 C 808.765625 538.429688 808.066406 539.355469 808.203125 540.355469 C 808.332031 541.265625 809.113281 541.933594 810.019531 541.933594 Z M 810.011719 614.996094 C 811.007812 614.804688 811.652344 613.839844 811.457031 612.84375 L 798.496094 546.910156 C 798.304688 545.917969 797.339844 545.257812 796.34375 545.46875 C 795.351562 545.664062 794.703125 546.625 794.902344 547.617188 L 807.863281 613.554688 C 808.03125 614.421875 808.800781 615.027344 809.660156 615.027344 C 809.773438 615.027344 809.898438 615.023438 810.011719 614.996094 Z M 813.988281 689.070312 C 813.988281 689.070312 813.980469 689.070312 813.980469 689.070312 C 812.972656 689.070312 812.148438 689.886719 812.148438 690.902344 C 812.144531 691.90625 811.722656 792.257812 808.632812 812.683594 C 808.480469 813.691406 809.167969 814.621094 810.167969 814.773438 C 810.265625 814.785156 810.351562 814.792969 810.449219 814.792969 C 811.339844 814.792969 812.125 814.140625 812.257812 813.234375 C 815.382812 792.539062 815.796875 695.058594 815.8125 690.914062 C 815.820312 689.902344 815.003906 689.078125 813.988281 689.070312 Z M 821.167969 430.269531 C 821.523438 430.601562 821.972656 430.765625 822.429688 430.765625 C 822.910156 430.765625 823.402344 430.574219 823.761719 430.195312 C 824.449219 429.453125 824.414062 428.296875 823.679688 427.601562 C 821.578125 425.625 819.773438 418.875 819.105469 414.984375 L 809.679688 373.972656 C 809.453125 372.992188 808.46875 372.375 807.480469 372.597656 C 806.492188 372.828125 805.882812 373.808594 806.105469 374.796875 L 815.511719 415.707031 C 815.703125 416.828125 817.488281 426.8125 821.167969 430.269531 Z M 633.027344 427.671875 L 726.039062 427.671875 C 727.054688 427.671875 727.871094 428.496094 727.871094 429.507812 C 727.871094 430.515625 727.054688 431.335938 726.039062 431.335938 L 633.027344 431.335938 C 632.015625 431.335938 631.195312 430.515625 631.195312 429.507812 C 631.195312 428.496094 632.015625 427.671875 633.027344 427.671875 " fill-opacity="1" fill-rule="nonzero"/></g></svg>